<?xml version="1.0" standalone="no"?><!DOCTYPE svg PUBLIC "-//W3C//DTD SVG 1.1//EN" "http://www.w3.org/Graphics/SVG/1.1/DTD/svg11.dtd"><svg t="1595430335182" class="icon" viewBox="0 0 1038 1024" version="1.1" xmlns="http://www.w3.org/2000/svg" p-id="3045" xmlns:xlink="http://www.w3.org/1999/xlink" width="202.734375" height="200"><defs><style type="text/css"></style></defs><path d="M865.19292312 992h-692.50210593a140.84245969 140.84245969 0 0 1-140.69081719-140.69081719V172.69081719A140.84245969 140.84245969 0 0 1 172.69081719 32h452.08087593a16.19208094 16.19208094 0 1 1 1e-8 32.38416188H172.72451563A108.42459937 108.42459937 0 0 0 64.41786031 172.69081719v678.66891281a108.42459937 108.42459937 0 0 0 108.30665532 108.30665625h692.50210593a108.42459937 108.42459937 0 0 0 108.27295688-108.30665625V393.70176875a16.19208094 16.19208094 0 1 1 32.38416187 0v457.65796125a140.84245969 140.84245969 0 0 1-140.69081718 140.64027z" fill="#0F0F0F" p-id="3046"></path><path d="M952.55602344 120.57624219l-86.70598125-69.55349531a39.24178594 39.24178594 0 0 0-55.16427938 6.08256093L395.36984 575.31929187a16.19208094 16.19208094 0 0 0-3.55518094 10.21061532l0.64026938 124.88626781a16.19208094 16.19208094 0 0 0 19.62931781 15.75400219l122.03875313-26.55433875a16.20892969 16.20892969 0 0 0 9.19966312-5.69502938l50.34540844-62.83066594a15.92249344 15.92249344 0 0 0 6.25105312-7.80117937l358.71946032-447.58213969a39.29233406 39.29233406 0 0 0-6.08256094-55.13058187z m-430.95198 548.60994187l-96.89974688 21.0951975-0.50547562-99.15754031 40.30328531-50.29486031 96.93344531 78.66891281zM933.36478531 155.48778406L581.70513875 594.22409469l-96.91659656-78.66891375 351.17101969-438.07919063a6.85762406 6.85762406 0 0 1 9.63774187-1.06150031l86.70598219 69.50294906a6.85762406 6.85762406 0 0 1 1.06149937 9.570345z" fill="#239B54" p-id="3047"></path></svg>